<svg width="30" height="30" viewBox="0 0 30 30" fill="none" xmlns="http://www.w3.org/2000/svg">
<path opacity="0.4" d="M13.45 2.5C12.85 2.5 12.375 2.975 12.375 3.575V26.4375C12.375 27.025 12.85 27.5125 13.45 27.5125C20.8125 27.5125 25.95 22.375 25.95 15.0125C25.95 7.65 20.8 2.5 13.45 2.5Z" fill="black"/>
<path d="M19.875 14.425L16.325 10.8625C16.1486 10.6881 15.9106 10.5903 15.6625 10.5903C15.4145 10.5903 15.1765 10.6881 15 10.8625C14.6375 11.225 14.6375 11.825 15 12.1875L16.95 14.1375H4.98755C4.47505 14.1375 4.05005 14.5625 4.05005 15.075C4.05005 15.5875 4.47505 16.0125 4.98755 16.0125H16.95L15 17.975C14.6375 18.3375 14.6375 18.9375 15 19.3C15.1875 19.4875 15.425 19.575 15.6625 19.575C15.9 19.575 16.1375 19.4875 16.325 19.3L19.875 15.7375C20.25 15.375 20.25 14.7875 19.875 14.425Z" fill="black"/>
</svg>
