<svg width="30" height="30" viewBox="0 0 30 30" fill="none" xmlns="http://www.w3.org/2000/svg">
<path opacity="0.4" d="M24.1751 18.1101L22.9251 16.0351C22.6625 15.5726 22.4251 14.6976 22.4251 14.1851V11.0226C22.4251 6.94756 19.1126 3.62256 15.0251 3.62256C10.9376 3.62256 7.62505 6.94756 7.62505 11.0226V14.1851C7.62505 14.6976 7.38755 15.5726 7.12505 16.0226L5.86255 18.1101C5.36255 18.9476 5.25005 19.8726 5.56255 20.7226C5.86255 21.5601 6.57505 22.2101 7.50005 22.5226C9.92505 23.3476 12.4751 23.7476 15.0251 23.7476C17.5751 23.7476 20.1251 23.3476 22.5501 22.5351C23.4251 22.2476 24.1001 21.5851 24.4251 20.7226C24.7501 19.8601 24.6625 18.9101 24.1751 18.1101Z" fill="black"/>
<path d="M17.8125 4.15C16.95 3.8125 16.0125 3.625 15.025 3.625C14.05 3.625 13.1125 3.8 12.25 4.15C12.7875 3.1375 13.85 2.5 15.025 2.5C16.2125 2.5 17.2625 3.1375 17.8125 4.15ZM18.5375 25.0125C18.2746 25.7402 17.7941 26.3693 17.1612 26.8143C16.5283 27.2594 15.7737 27.4988 15 27.5C14.0125 27.5 13.0375 27.1 12.35 26.3875C11.95 26.0125 11.65 25.5125 11.475 25C11.6375 25.025 11.8 25.0375 11.975 25.0625C12.2625 25.1 12.5625 25.1375 12.8625 25.1625C13.575 25.225 14.3 25.2625 15.025 25.2625C15.7375 25.2625 16.45 25.225 17.15 25.1625C17.4125 25.1375 17.675 25.125 17.925 25.0875L18.5375 25.0125Z" fill="black"/>
</svg>
