<svg width="30" height="30" viewBox="0 0 30 30" fill="none" xmlns="http://www.w3.org/2000/svg">
<path opacity="0.4" d="M26.3 8.9875L15 15.525L3.69995 8.9875C4.19995 8.0625 4.92495 7.25 5.73745 6.8L12.4125 3.1C13.8375 2.3 16.1625 2.3 17.5875 3.1L24.2625 6.8C25.075 7.25 25.8 8.0625 26.3 8.9875Z" fill="black"/>
<path opacity="0.6" d="M15 15.5263V27.5013C14.0625 27.5013 13.125 27.3013 12.4125 26.9013L5.73755 23.2013C4.22505 22.3638 2.98755 20.2638 2.98755 18.5388V11.4638C2.98755 10.6638 3.26255 9.78877 3.70005 8.98877L15 15.5263Z" fill="black"/>
<path d="M27.0125 11.4638V18.5388C27.0125 20.2638 25.775 22.3638 24.2625 23.2013L17.5875 26.9013C16.875 27.3013 15.9375 27.5013 15 27.5013V15.5263L26.3 8.98877C26.7375 9.78877 27.0125 10.6638 27.0125 11.4638Z" fill="black"/>
</svg>
