<svg width="44" height="44" viewBox="0 0 44 44" fill="none" xmlns="http://www.w3.org/2000/svg">
<g clip-path="url(#clip0_101_37)">
<path opacity="0.4" d="M22.0003 44.3554C32.1258 44.3554 40.3337 36.1476 40.3337 26.0221C40.3337 15.8966 32.1258 7.68872 22.0003 7.68872C11.8748 7.68872 3.66699 15.8966 3.66699 26.0221C3.66699 36.1476 11.8748 44.3554 22.0003 44.3554Z" fill="black"/>
<path d="M22.0002 16.7251C18.2052 16.7251 15.1252 19.8051 15.1252 23.6001C15.1252 27.3218 18.0402 30.3468 21.9085 30.4568H22.2385C24.0182 30.3983 25.7054 29.6503 26.9438 28.3708C28.1822 27.0914 28.8747 25.3807 28.8752 23.6001C28.8752 19.8051 25.7952 16.7251 22.0002 16.7251ZM34.4284 39.4896C31.0449 42.6169 26.6057 44.352 21.9984 44.3479C17.195 44.3479 12.8317 42.4963 9.56836 39.4896C10.0084 37.8213 11.2 36.2996 12.9417 35.1263C17.9467 31.7896 26.0867 31.7896 31.055 35.1263C32.815 36.2996 33.9884 37.8213 34.4284 39.4896Z" fill="#3B606A"/>
</g>
<defs>
<clipPath id="clip0_101_37">
<rect width="44" height="44" fill="white"/>
</clipPath>
</defs>
</svg>
