<svg width="25" height="25" viewBox="0 0 25 25" fill="none" xmlns="http://www.w3.org/2000/svg">
<path d="M11.458 20.8333C13.9444 20.8333 16.329 19.8455 18.0871 18.0874C19.8453 16.3292 20.833 13.9447 20.833 11.4583C20.833 8.97185 19.8453 6.58728 18.0871 4.82913C16.329 3.07097 13.9444 2.08325 11.458 2.08325C8.9716 2.08325 6.58703 3.07097 4.82888 4.82913C3.07073 6.58728 2.08301 8.97185 2.08301 11.4583C2.08301 13.9447 3.07073 16.3292 4.82888 18.0874C6.58703 19.8455 8.9716 20.8333 11.458 20.8333Z" stroke="#3B606A" stroke-width="1.5" stroke-linecap="round" stroke-linejoin="round"/>
<path opacity="0.4" d="M19.7188 21.5509C20.2709 23.2176 21.5313 23.3843 22.5 21.9259C23.3854 20.5926 22.8021 19.4989 21.1979 19.4989C20.0104 19.4884 19.3438 20.4155 19.7188 21.5509Z" stroke="black" stroke-width="1.5" stroke-linecap="round" stroke-linejoin="round"/>
</svg>
