<svg width="40" height="40" viewBox="0 0 40 40" fill="none" xmlns="http://www.w3.org/2000/svg">
<path opacity="0.4" d="M27.4837 36.6666H12.5171C6.66706 36.6666 5.40039 33.3166 5.88372 29.2166L7.38372 16.7166C7.76706 13.4833 8.33372 10.8333 14.0004 10.8333H26.0004C31.667 10.8333 32.2337 13.4833 32.617 16.7166L33.867 27.1333L34.117 29.2166L34.167 29.6166C34.517 33.5333 33.1504 36.6666 27.4837 36.6666Z" fill="black"/>
<path d="M26.6663 14.5832C25.983 14.5832 25.4163 14.0166 25.4163 13.3332V7.49992C25.4163 5.69992 24.2997 4.58325 22.4997 4.58325H17.4997C15.6997 4.58325 14.583 5.69992 14.583 7.49992V13.3332C14.583 14.0166 14.0163 14.5832 13.333 14.5832C12.6497 14.5832 12.083 14.0166 12.083 13.3332V7.49992C12.083 4.31658 14.3163 2.08325 17.4997 2.08325H22.4997C25.683 2.08325 27.9163 4.31658 27.9163 7.49992V13.3332C27.9163 14.0166 27.3497 14.5832 26.6663 14.5832ZM34.1663 29.6182C34.1163 29.6349 34.0663 29.6349 34.0163 29.6349H13.333C13.0015 29.6349 12.6835 29.5032 12.4491 29.2688C12.2147 29.0344 12.083 28.7164 12.083 28.3849C12.083 28.0534 12.2147 27.7354 12.4491 27.501C12.6835 27.2666 13.0015 27.1349 13.333 27.1349H33.8663L34.1163 29.2182L34.1663 29.6182Z" fill="#3B606A"/>
</svg>
