<svg width="30" height="30" viewBox="0 0 30 30" fill="none" xmlns="http://www.w3.org/2000/svg">
<path d="M15 15C16.6576 15 18.2473 14.3415 19.4194 13.1694C20.5915 11.9973 21.25 10.4076 21.25 8.75C21.25 7.0924 20.5915 5.50269 19.4194 4.33058C18.2473 3.15848 16.6576 2.5 15 2.5C13.3424 2.5 11.7527 3.15848 10.5806 4.33058C9.40848 5.50269 8.75 7.0924 8.75 8.75C8.75 10.4076 9.40848 11.9973 10.5806 13.1694C11.7527 14.3415 13.3424 15 15 15Z" fill="black"/>
<path opacity="0.4" d="M15 18.125C8.73745 18.125 3.63745 22.325 3.63745 27.5C3.63745 27.85 3.91245 28.125 4.26245 28.125H25.7375C26.0875 28.125 26.3625 27.85 26.3625 27.5C26.3625 22.325 21.2625 18.125 15 18.125Z" fill="black"/>
<path d="M26.7888 18.4249C25.6638 17.2999 24.7763 17.6624 24.0138 18.4249L19.5888 22.8499C19.4138 23.0249 19.2513 23.3499 19.2138 23.5874L18.9763 25.2749C18.8888 25.8874 19.3138 26.3124 19.9263 26.2249L21.6138 25.9874C21.8513 25.9499 22.1888 25.7874 22.3513 25.6124L26.7763 21.1874C27.5513 20.4374 27.9138 19.5499 26.7888 18.4249Z" fill="black"/>
</svg>
